<svg xmlns="http://www.w3.org/2000/svg" viewBox="0 0 563.8 504.12"><defs><style>.cls-1{fill:#641b93;}.cls-2{fill:#ee4a1b;}</style></defs><g id="Layer_2" data-name="Layer 2"><g id="Слой_1" data-name="Слой 1"><path class="cls-1" d="M33.28,19.22q7.13,19.37,14.56,38.65L62.67,96.43l29.87,77,29.87,77c5,12.83,9.86,25.71,14.82,38.56l7.4,19.28,3.7,9.63,1.86,4.82.93,2.4.46,1.2.23.59.11.29.06.14,0,.05c-11.58,4,25.92-8.87-26,8.77a1,1,0,0,1-1.21-.6.81.81,0,0,1,0-.46l.91-5.7c1.45-9,2.73-18.09,3.66-27.2q.67-6.82,1.21-13.67t.85-13.68c.5-9.12.77-18.24,1.11-27.31l1-27.15c.35-9,.64-18,.92-27,.07-2.25.09-4.49.11-6.74s.09-4.5.09-6.74,0-4.5,0-6.74c0-1.12,0-2.25,0-3.37l-.05-3.36c-.32-17.94-1.4-35.81-4.35-53.59l16.41-3.32-1.64,16.83q-.44,4.24-.91,8.51c-.34,2.85-.66,5.71-1.1,8.58a1.81,1.81,0,0,1-3.49.37c-1-2.72-2-5.45-2.85-8.19s-1.74-5.5-2.54-8.26-1.57-5.54-2.3-8.33-1.42-5.61-2-8.44a8.19,8.19,0,0,1,15.24-5.55l1.17,2.23c9.27,17.59,15,36.74,18.66,55.94.46,2.41.92,4.81,1.29,7.23s.75,4.83,1.06,7.24c.71,4.83,1.21,9.67,1.63,14.52a285,285,0,0,1,1.21,29q-.11,14.49-1.63,28.86c-1,9.58-2.47,19.08-4.09,28.54q-1.25,7.08-2.63,14.13t-2.84,14.08c-2,9.36-4,18.71-6.2,28l-.34-6.76c-51.95,17.59-14.47,4.68-26.06,8.62l0-.1,0-.17-.1-.32-.21-.62-.4-1.23-.79-2.47L123,326.94l-3.17-9.84-6.33-19.67C109.3,284.3,105,271.2,100.92,258q-12.33-39.47-24.55-79l-12-39.56c-4-13.2-8-26.39-11.87-39.62C44.69,73.44,36.91,47,29.93,20.26a1.76,1.76,0,0,1,3.35-1.06Z"/><path class="cls-2" d="M212,117.58a157.06,157.06,0,0,0,21.28-2.71c1.74-.31,3.45-.76,5.16-1.15s3.38-.88,5-1.42a66.59,66.59,0,0,0,9.53-3.72c6-2.91,11.4-6.73,14.69-11.43s4.28-9.94,3-14.49a15.88,15.88,0,0,0-8.92-10.21,18.8,18.8,0,0,0-13.81-.35c-4.81,1.53-9.59,4.69-13.93,8.76-1.11,1-2.13,2.08-3.22,3.21s-2.28,2.42-3.32,3.68l-1.59,1.86c-.53.62-1,1.26-1.51,1.89-1,1.25-1.93,2.55-2.88,3.82a63.29,63.29,0,0,0-4.73,7.84,44.79,44.79,0,0,0-3,7.88,28.28,28.28,0,0,0-1.07,7.36,21.72,21.72,0,0,0,.85,6.42,31.62,31.62,0,0,0,6.11,11.31A64.26,64.26,0,0,0,231.25,147a101.06,101.06,0,0,0,15.71,9.4q4.29,2.09,8.81,3.94,2.28.9,4.6,1.74c1.54.57,3.1,1.13,4.69,1.63a149.18,149.18,0,0,0,19.68,5c3.41.65,6.87,1.15,10.41,1.55s7.16.64,10.92.8h0a1.73,1.73,0,0,1,1.66,1.8,1.77,1.77,0,0,1-.73,1.34A55.63,55.63,0,0,1,296.73,180a78.15,78.15,0,0,1-11.23,3.82,95.43,95.43,0,0,1-23.74,2.94c-2,0-4-.07-6-.16s-4-.32-6.05-.54a99.21,99.21,0,0,1-12.1-2.12,94.86,94.86,0,0,1-23.65-9,69.41,69.41,0,0,1-21.09-17.44,55.92,55.92,0,0,1-7.67-12.87,51.7,51.7,0,0,1-3.86-15.06,53.62,53.62,0,0,1,.76-15.29,61.22,61.22,0,0,1,4.48-13.65A92.05,92.05,0,0,1,200.87,79c1.36-1.53,2.71-3.08,4.14-4.51.7-.72,1.39-1.46,2.11-2.16l2.17-2.08c1.42-1.41,2.93-2.67,4.39-4s3.19-2.74,4.92-4a68.3,68.3,0,0,1,11.18-6.91,53,53,0,0,1,13.08-4.45,41.82,41.82,0,0,1,14.48-.29,36.8,36.8,0,0,1,7.19,1.89,34.34,34.34,0,0,1,22.24,27.41,31.17,31.17,0,0,1-1.64,14.32,33.51,33.51,0,0,1-7.27,11.62,42.46,42.46,0,0,1-10.13,7.73,56.79,56.79,0,0,1-11.09,4.65c-15.09,4.45-30.2,4.23-44.77,2.67a1.64,1.64,0,0,1-1.47-1.81,1.66,1.66,0,0,1,1.53-1.47Z"/><path class="cls-1" d="M318.15,57.61A142.42,142.42,0,0,1,321.33,75q1.16,8.69,2.07,17.31c1.25,11.49,2.52,22.91,4.38,34.06.9,5.58,2,11.08,3.28,16.41A98.48,98.48,0,0,0,336,157.93c2,4.66,4.53,8.84,7.33,11.52a13.71,13.71,0,0,0,4.17,2.87,12.1,12.1,0,0,0,4.38.89l-11.34,6.36c2.82-7.31,5.26-14.85,7.6-22.54s4.47-15.57,6.8-23.54,4.7-16.08,7.5-24.23a235.62,235.62,0,0,1,9.84-24.48,15.52,15.52,0,0,1,27.49-1.06l.57,1a182.12,182.12,0,0,1,9.42,19.49c2.71,6.39,5.15,12.67,7.51,18.8s4.67,12.06,7,17.74,4.72,11.06,7.14,15.83l-33-6.31a9.2,9.2,0,0,1,.59-.77,4.26,4.26,0,0,0,.32-.38l.35-.49.72-1,.75-1.15c.52-.7,1-1.64,1.57-2.46s1-1.84,1.58-2.73c2.12-3.79,4.17-8,6.12-12.43a251.11,251.11,0,0,0,10.38-27.83,200.27,200.27,0,0,0,6.68-29,95.26,95.26,0,0,0,1.09-14l0-1.67,0-.84-.07-.79c-.05-.54-.07-1.08-.1-1.62s-.13-1-.18-1.55A37.23,37.23,0,0,0,427,45.78l16.53.91c-2.46,2.07-4.86,4-7.28,5.88l-7.14,5.6c-2.37,1.86-4.68,3.74-6.94,5.67A64.46,64.46,0,0,0,415.82,70l-.1.1a2.07,2.07,0,0,1-2.93.19,2.13,2.13,0,0,1-.69-1.82,42.6,42.6,0,0,1,2.63-9.67c1.17-3.08,2.54-6,4-8.91s2.93-5.69,4.47-8.41l4.51-8a8.94,8.94,0,0,1,14.58-1.4l1.95,2.31a47.11,47.11,0,0,1,6.08,9.11,60.45,60.45,0,0,1,4,9.52,95.31,95.31,0,0,1,4,19,152.59,152.59,0,0,1-.68,36.85,167.91,167.91,0,0,1-8.78,35.63A118.46,118.46,0,0,1,440.67,162,76.36,76.36,0,0,1,427,179.68l-.69.67a20,20,0,0,1-32.29-7,162.17,162.17,0,0,1-6.56-20.44c-1.74-6.59-3.18-13-4.63-19.25s-2.93-12.28-4.62-18a117.8,117.8,0,0,0-5.88-16.12l28.06-.06c-7.57,13-13.58,27.62-19.6,42.84-3,7.62-6.07,15.36-9.34,23.16s-6.82,15.61-10.84,23.28l-.49.94a10.4,10.4,0,0,1-10.85,5.42,33.61,33.61,0,0,1-12-4.38,34.86,34.86,0,0,1-9.09-8.1,54.66,54.66,0,0,1-9.11-18.71,114.8,114.8,0,0,1-3.59-18.34c-.73-6-1.13-12-1.36-17.88-.38-11.83-.08-23.47.21-35,.14-5.78.36-11.54.41-17.27a160.41,160.41,0,0,0-.51-17v0a2,2,0,0,1,3.94-.71Z"/><path class="cls-2" d="M231.6,286.57a105.39,105.39,0,0,0-20.74,18.74c-5.93,7-10.76,14.9-13.17,22.95a33.18,33.18,0,0,0-1.4,11.87,27.2,27.2,0,0,0,1,5.57c.13.45.27.89.43,1.33l.5,1.56c.35,1.07.71,2.14,1.08,3.18a65.27,65.27,0,0,0,5.25,11.6,34.58,34.58,0,0,0,7.25,8.77,32.94,32.94,0,0,0,9.46,5.54,47.78,47.78,0,0,0,5.55,1.69c1.92.45,3.92.79,5.95,1.07s4.16.43,6.22.52a55.74,55.74,0,0,0,6.07,0A38.79,38.79,0,0,0,256,378.84a23.91,23.91,0,0,0,14-12.52c3-6,4.19-13.76,3.85-21.77a89.15,89.15,0,0,0-4.75-24.25,119.62,119.62,0,0,0-10.42-22.66,90.62,90.62,0,0,0-14.1-18.46c-1.29-1.25-2.6-2.37-3.89-3.43a42.43,42.43,0,0,0-3.89-2.72,25.42,25.42,0,0,0-3.78-1.92,18.56,18.56,0,0,0-1.83-.67c-.33-.11-.57-.17-.8-.23l-.36-.11-.33-.07a9.24,9.24,0,0,0-2.43-.26,7.65,7.65,0,0,0-2.6.5,14,14,0,0,0-3.23,1.81,25.21,25.21,0,0,0-3.6,3.16,55.75,55.75,0,0,0-7,9.23c-1.07,1.77-2.15,3.6-3.17,5.5s-2,3.88-2.92,5.88A203.88,203.88,0,0,0,195,321.44q-2.1,6.68-3.78,13.52c-.54,2.28-1.06,4.57-1.47,6.86-.21,1.14-.38,2.29-.52,3.41a20.05,20.05,0,0,0-.17,3.21v.27a1.66,1.66,0,0,1-3.07.93,19.08,19.08,0,0,1-1.71-3.79c-.44-1.26-.76-2.51-1.08-3.76q-.88-3.75-1.4-7.52a121.33,121.33,0,0,1-1.12-15.1A142.34,142.34,0,0,1,183.41,289a108.73,108.73,0,0,1,4.33-15.4,72.92,72.92,0,0,1,7.69-15.45,54.94,54.94,0,0,1,6-7.53,43.87,43.87,0,0,1,8.29-6.74A38.36,38.36,0,0,1,232.32,238l1.46.09,1.42.16c1,.11,1.89.24,2.74.4a50,50,0,0,1,5.11,1.18,58,58,0,0,1,9.43,3.71,67.32,67.32,0,0,1,15.38,10.76,95.61,95.61,0,0,1,20.24,27.37,128,128,0,0,1,10.7,30.71,130.71,130.71,0,0,1,2.42,16.08,110.67,110.67,0,0,1,.3,16.51,90.61,90.61,0,0,1-2.47,16.9,64.17,64.17,0,0,1-6.71,16.77,49.72,49.72,0,0,1-12.55,14.4,48.45,48.45,0,0,1-17,8.35,62.5,62.5,0,0,1-17.45,2,77.76,77.76,0,0,1-8.3-.58c-2.71-.32-5.34-.79-8-1.34a82.8,82.8,0,0,1-8-2.17,67.23,67.23,0,0,1-8-3.21,51,51,0,0,1-14.36-10.3,52.43,52.43,0,0,1-9.78-14.25,81.53,81.53,0,0,1-5.29-15.11c-.32-1.25-.61-2.49-.88-3.73l-.2-.93-.1-.46-.1-.54c-.14-.72-.25-1.44-.35-2.17a41.87,41.87,0,0,1-.25-8.73A46.8,46.8,0,0,1,186,323.75a62,62,0,0,1,8.44-13.33,88.18,88.18,0,0,1,10.64-10.86,101.13,101.13,0,0,1,12-8.88,93,93,0,0,1,13-7,1.65,1.65,0,0,1,1.58,2.87Z"/><path class="cls-2" d="M316.7,221.4A129,129,0,0,1,322,241.27c1.29,6.7,2.32,13.43,3.2,20.15,1.77,13.44,3.24,26.85,5.26,40,1,6.57,2.16,13.06,3.64,19.38a111.91,111.91,0,0,0,5.69,18.11c2.39,5.61,5.43,10.69,9.1,14.32a23.88,23.88,0,0,0,5.94,4.28,22.88,22.88,0,0,0,6.81,2c.6.09,1.23.12,1.85.19s1.12,0,1.66,0a15.39,15.39,0,0,0,8.7-3c3.57-2.52,6.84-6.77,9.55-11.7A85.91,85.91,0,0,0,390,328.56a152.78,152.78,0,0,0,4.26-18.18A187.52,187.52,0,0,0,397,272.51a160.55,160.55,0,0,0-1.56-18.5c-.42-3-.95-5.85-1.6-8.48-.34-1.3-.66-2.56-1-3.65a19.27,19.27,0,0,0-1.05-2.6l31.8-3.52a94.17,94.17,0,0,0,0,15.48c.43,5.61,1.06,11.45,1.95,17.34a363.4,363.4,0,0,0,7.1,35.83A348.67,348.67,0,0,0,443.47,340,170.12,170.12,0,0,0,450.76,357a81.73,81.73,0,0,0,4.57,8.05c.83,1.31,1.73,2.55,2.67,3.8s2,2.41,3.08,3.56l.06.06a1.7,1.7,0,0,1-.05,2.39,1.67,1.67,0,0,1-1.61.41,36.34,36.34,0,0,1-9.69-4.38,64.71,64.71,0,0,1-8.49-6.35,109.21,109.21,0,0,1-14.2-15.32A181.38,181.38,0,0,1,406,313.89a204.14,204.14,0,0,1-13.42-39.13,139.93,139.93,0,0,1-3.12-21.22,89.37,89.37,0,0,1,1.28-23.32l.17-.86a16.51,16.51,0,0,1,31.63-2.66,49.21,49.21,0,0,1,2.05,7c.47,2.17.82,4.22,1.07,6.23.51,4,.75,7.82.87,11.57a202.4,202.4,0,0,1-.72,21.88q-.44,5.37-1.11,10.68t-1.48,10.6c-1.1,7-2.46,14-4.19,21a175.06,175.06,0,0,1-6.48,20.76,107.69,107.69,0,0,1-10.2,20.21,64.22,64.22,0,0,1-7.52,9.5,46.66,46.66,0,0,1-10.25,8.09,35.87,35.87,0,0,1-13.17,4.53,34.62,34.62,0,0,1-7,.23c-1.14-.07-2.27-.21-3.37-.38S359,378.26,358,378a39.73,39.73,0,0,1-21.79-13.26c-5.39-6.4-8.57-13.57-10.84-20.55a125.56,125.56,0,0,1-4.57-20.94c-1-6.93-1.56-13.8-2-20.63C318,289,318,275.47,317.5,262.06c-.23-6.71-.48-13.39-1-20a134.61,134.61,0,0,0-2.91-19.67v0a1.64,1.64,0,0,1,1.21-2A1.67,1.67,0,0,1,316.7,221.4Z"/><path class="cls-1" d="M293.89,480c3.55-.08,7.09-.15,10.62-.19s7.06-.26,10.58-.41l5.26-.22c1.75-.1,3.5-.26,5.25-.39l5.24-.4,2.61-.21c.87-.07,1.74-.19,2.61-.28a305,305,0,0,0,41-6.71c1.67-.4,3.35-.69,5-1.17l5-1.32c1.64-.45,3.3-.87,4.93-1.34l4.86-1.53,4.85-1.5,4.78-1.7,4.76-1.69c1.57-.6,3.11-1.27,4.67-1.89l4.66-1.86c1.55-.63,3-1.37,4.57-2l4.55-2.06c1.51-.71,3-1.51,4.45-2.24l4.44-2.22c1.46-.79,2.88-1.62,4.32-2.42l4.3-2.42,4.18-2.63c11.15-6.94,20.94-15.71,29.84-24.92s17.51-18.43,26.3-27.81,17.23-19.38,25.71-30c4.3-5.27,8.44-10.78,12.81-16.39,1.15-1.37,2.12-2.84,3.24-4.26s2.18-2.86,3.35-4.29c2.2-2.89,4.42-5.84,7-8.75l.06-.07a2.17,2.17,0,0,1,3.06-.2,2.14,2.14,0,0,1,.73,1.42,107.56,107.56,0,0,1,.44,11.48c-.14,3.78-.33,7.6-.77,11.38a142.42,142.42,0,0,1-4.5,22.4A153.35,153.35,0,0,1,539.15,413c-.54.82-1.06,1.64-1.61,2.44l-1.73,2.36c-1.16,1.57-2.33,3.13-3.53,4.67-2.41,3.06-5.07,5.93-7.71,8.8-1.34,1.42-2.8,2.73-4.2,4.09s-2.85,2.67-4.33,3.94c-3,2.47-6,5-9.21,7.23-12.73,9.08-26.49,16.31-40.25,22.85l-5.18,2.42L456.13,474c-1.76.72-3.51,1.47-5.28,2.15l-5.34,1.92c-1.78.63-3.56,1.28-5.35,1.85l-5.42,1.63c-1.81.53-3.6,1.11-5.41,1.59l-5.46,1.37c-1.82.43-3.63.9-5.46,1.29l-5.5,1.08-5.48,1.06-5.52.83-5.5.79c-1.84.22-3.69.38-5.52.57l-5.51.55c-1.83.22-3.68.25-5.51.38-7.34.48-14.68.55-22,.51L347,491.26c-3.63-.22-7.25-.5-10.86-.78-.9-.07-1.8-.12-2.7-.22l-2.7-.3-5.38-.62c-1.8-.21-3.59-.38-5.37-.63l-5.35-.81c-7.12-1-14.16-2.47-21.16-3.9a2,2,0,0,1,.35-4Z"/><path class="cls-1" d="M135.41,313.59,120,276.8l-15.1-36.9c-5-12.3-10-24.64-14.89-37l-14.75-37c-9.77-24.7-19.35-49.48-29.58-73.66-5.17-12-10.35-24-16-35.67S17.9,33.36,11.62,21.87l27.86-5c-.9,11-1.54,22-1.79,33.11q-.16,8.3-.17,16.61t.23,16.63q.16,8.3.48,16.6l.58,16.57,1.12,33,1.08,33c.1,2.74.22,5.48.38,8.22s.22,5.48.39,8.21.29,5.48.51,8.21.3,5.47.53,8.19.39,5.47.65,8.18.42,5.46.71,8.16l.84,8.15c.29,2.71.57,5.43.95,8.12,1.32,10.82,3.08,21.54,5.39,32.17l-17.43,4.34L34.56,265l.18-4.89.22-4.91c.17-3.28.33-6.56.61-9.87a1.95,1.95,0,0,1,3.73-.59c1.29,3.06,2.44,6.15,3.59,9.24l1.67,4.65,1.6,4.68c1.05,3.12,2,6.26,3,9.41s1.89,6.33,2.74,9.53a8.81,8.81,0,0,1-16.22,6.53l-1.21-2.19A215,215,0,0,1,20.18,254c-1-2.79-1.89-5.58-2.79-8.39s-1.7-5.62-2.52-8.44c-1.61-5.65-3.07-11.32-4.34-17S8,208.76,7,203s-2-11.47-2.78-17.22c-1.69-11.5-2.81-23-3.51-34.58S-.16,128.14.13,116.6L.42,108l.44-8.63q.56-8.64,1.25-17.25t1.64-17.2q.86-8.59,1.88-17.17C7,36.28,8.38,24.84,10.1,13.41l.15-1A14.62,14.62,0,0,1,26.9.17,14.79,14.79,0,0,1,38,8.42C43.69,20.61,49.25,33,54.43,45.5s9.88,25.26,14.19,38c8.54,25.48,16.28,50.89,24.07,76.3L139,312.3a1.9,1.9,0,0,1-3.56,1.29Z"/><path class="cls-1" d="M162.7,234.09c.58,6.15.74,12.22.79,18.28s-.12,12.07-.44,18.07c-.61,12-1.81,23.9-3.5,35.74a428.06,428.06,0,0,1-16.13,69.88c-7.4,22.86-16.69,45.34-28.9,66.67a236,236,0,0,1-20.83,30.74,181,181,0,0,1-12.58,14,141.7,141.7,0,0,1-14.32,12.54L64,502.14a9.74,9.74,0,0,1-14.09-13,37.89,37.89,0,0,1,6.91-8,52.21,52.21,0,0,1,7.57-5.4l3.68-2.16q1.83-1,3.6-2.1a71.51,71.51,0,0,0,7.1-4.8,35.16,35.16,0,0,1-2.17,8.78c-.55,1.41-1.14,2.8-1.75,4.16L73,483.52a66.09,66.09,0,0,0-3,7.21A24.4,24.4,0,0,0,68.79,497L51.92,486.05a288.24,288.24,0,0,0,15.77-29.22c4.8-10,9.24-20.25,13.54-30.61,8.59-20.72,16.67-41.9,24.83-63.28s16.46-42.92,25.52-64.48c4.55-10.77,9.28-21.55,14.36-32.3q3.8-8.07,7.93-16.1C156.65,244.72,159.48,239.37,162.7,234.09Z"/></g></g></svg>